<?xml version="1.0" encoding="utf-8"?>
<!-- Generator: Adobe Illustrator 26.3.1, SVG Export Plug-In . SVG Version: 6.00 Build 0)  -->
<svg version="1.1" id="Layer_1" xmlns="http://www.w3.org/2000/svg" xmlns:xlink="http://www.w3.org/1999/xlink" x="0px" y="0px"
	 viewBox="0 0 1280 1580" style="enable-background:new 0 0 1280 1580;" xml:space="preserve">
<style type="text/css">
	.st0{fill:#117BB8;}
	.st1{fill:#FFFFFF;}
</style>
<g id="XMLID_00000111913918103857245260000016793718343744632725_">
	<path id="XMLID_00000177483882778288892330000011823349209147409850_" class="st0" d="M1075.1,1267.4H241
		c-10.4,0-18.9-8.5-18.9-18.9V414.4c0-10.4,8.5-18.9,18.9-18.9h834.1c10.4,0,18.9,8.5,18.9,18.9v834.1
		C1094,1259,1085.5,1267.4,1075.1,1267.4z"/>
	<g id="XMLID_00000150079733813492777980000009626480005191644064_">
		<g id="XMLID_00000169530244975950489820000017889292813812784786_">
			<path id="XMLID_00000047019959296467663430000016088672031173310602_" class="st1" d="M470.8,1025.8h69.4
				c5.8,0,10.4-4.7,10.4-10.4V744.7c0-5.8-4.7-10.4-10.4-10.4h-69.4c-5.8,0-10.4,4.7-10.4,10.4v270.6
				C460.4,1021.1,465,1025.8,470.8,1025.8z"/>
			<path id="XMLID_00000089575155978010310190000002491952005183520926_" class="st1" d="M505.1,696.1c29.5,0,53.4-24.1,53.4-53.8
				s-23.9-53.8-53.4-53.8c-29.5,0-53.3,24.1-53.3,53.8S475.6,696.1,505.1,696.1z"/>
		</g>
		<path id="XMLID_00000080916814279418210890000011830974230201924530_" class="st1" d="M694.8,872.8c0-41,18.9-65.4,55-65.4
			c33.2,0,49.1,23.4,49.1,65.4v142.6c0,5.8,4.7,10.4,10.4,10.4h69c5.8,0,10.4-4.7,10.4-10.4V841.2c0-78.1-44.3-115.8-106.1-115.8
			c-33.4,0-56.3,14-70.3,26.9c-6.7,6.2-17.5,1.5-17.5-7.6v0c0-5.8-4.7-10.4-10.4-10.4h-65.7c-5.8,0-10.4,4.7-10.4,10.4v270.6
			c0,5.8,4.7,10.4,10.4,10.4h65.7c5.8,0,10.4-4.7,10.4-10.4V872.8z"/>
	</g>
</g>
</svg>
