<?xml version="1.0" encoding="utf-8"?>
<!-- Generator: Adobe Illustrator 26.3.1, SVG Export Plug-In . SVG Version: 6.00 Build 0)  -->
<svg version="1.1" xmlns="http://www.w3.org/2000/svg" xmlns:xlink="http://www.w3.org/1999/xlink" x="0px" y="0px"
	 viewBox="0 0 50 50" style="enable-background:new 0 0 50 50;" xml:space="preserve">
<style type="text/css">
	.st0{display:none;}
	.st1{display:inline;}
	.st2{fill:#E34E26;}
	.st3{fill:#EF662A;}
	.st4{fill:#FFFFFF;}
	.st5{fill:#EBEBEB;}
	.st6{fill:#001E36;}
	.st7{fill:#31A8FF;}
	.st8{fill:#330000;}
	.st9{fill:#FF9A00;}
	.st10{clip-path:url(#SVGID_00000039830181574229593970000007742094889211969172_);}
	
		.st11{clip-path:url(#SVGID_00000150068968886843026050000015693474479563285378_);fill:url(#SVGID_00000181808783773353652390000015927933790058038667_);}
	.st12{clip-path:url(#SVGID_00000093882486123716050950000011140993600826899360_);}
	
		.st13{clip-path:url(#SVGID_00000017504234779789256870000002012987929939425172_);fill:none;stroke:#D8A1FF;stroke-width:36.777;stroke-miterlimit:10;}
	.st14{clip-path:url(#SVGID_00000017483943281752982160000005902880044365242017_);fill:#D8A1FF;}
	.st15{clip-path:url(#SVGID_00000035500764068819479420000010272237000005677225_);fill:#D8A1FF;}
	.st16{clip-path:url(#SVGID_00000109009867211885585040000016278279538846444972_);fill:#D8A1FF;}
	.st17{clip-path:url(#SVGID_00000029754679000467256370000008039542754349141900_);}
	
		.st18{clip-path:url(#SVGID_00000040572437645302138190000008253071315426665115_);fill:url(#SVGID_00000057852776080512330840000004429372466088148136_);}
	.st19{clip-path:url(#SVGID_00000150811830603393253640000010461162874594210989_);}
	.st20{clip-path:url(#SVGID_00000111885963330510352340000001361241411662591916_);fill:#D8A1FF;}
	.st21{clip-path:url(#SVGID_00000150062828593574219190000001230442399153772177_);fill:#D8A1FF;}
	.st22{clip-path:url(#SVGID_00000148634138336802623570000011317758118598739871_);fill:#D8A1FF;}
	.st23{fill:#D8A1FF;}
	.st24{fill:#00005B;}
	.st25{fill:#9999FF;}
	.st26{fill:#000D12;}
	.st27{fill:#005050;}
	.st28{fill:#026D6C;}
	.st29{fill:#001D20;}
	.st30{fill:#003334;}
	.st31{fill:#4C4C4C;}
	.st32{fill:#808080;}
</style>
<g id="HTML_-_5_-_Base_Icon" class="st0">
	<g id="XMLID_3090_" class="st1">
		<path id="XMLID_3149_" class="st2" d="M9.3,42.4L5.8,3.2h38.4l-3.5,39.2L25,46.8L9.3,42.4z"/>
		<path id="XMLID_3148_" class="st3" d="M25,6.4v37.1l12.7-3.6l3-33.5L25,6.4z"/>
		<g id="XMLID_3091_">
			<path id="XMLID_3146_" class="st4" d="M12.9,11.2l1.3,14.6h16.7L30.4,32L25,33.5L19.6,32l-0.3-4h-4.9l0.7,7.7l9.9,2.8l9.9-2.8
				L36.2,21H18.6l-0.4-5h18.4l0.5-4.8H12.9z"/>
			<g id="XMLID_3092_">
				<path id="XMLID_3145_" class="st5" d="M25,11.2H12.9l1.3,14.6H25V21h-6.4l-0.4-5H25V11.2z"/>
				<path id="XMLID_3103_" class="st5" d="M25,33.5L19.6,32l-0.3-4h-4.9l0.7,7.7l9.9,2.8V33.5z"/>
			</g>
		</g>
	</g>
</g>
<g id="Photoshop" class="st0">
	<g id="Layer_2_1_" class="st1">
		<g id="Surfaces">
			<g id="Photo_Surface">
				<g id="Outline_no_shadow">
					<path class="st6" d="M9.8,1.9h30.7c4.7,0,8.4,3.8,8.4,8.4v29.5c0,4.7-3.8,8.4-8.4,8.4H9.8c-4.7,0-8.4-3.8-8.4-8.4V10.3
						C1.3,5.6,5.1,1.9,9.8,1.9z"/>
				</g>
			</g>
		</g>
		<g id="Outlined_Mnemonics_Logos">
			<g id="Ps">
				<path class="st7" d="M12,34.4V14c0-0.1,0.1-0.2,0.2-0.2c0.3,0,0.7,0,1.1,0c0.5,0,1,0,1.5,0c0.5,0,1.1,0,1.7,0c0.6,0,1.2,0,1.8,0
					c1.6,0,3,0.2,4.1,0.6c1,0.3,1.9,0.9,2.7,1.6c0.6,0.6,1.1,1.4,1.4,2.3c0.3,0.8,0.5,1.7,0.5,2.6c0,1.7-0.4,3.1-1.2,4.2
					c-0.8,1.1-1.9,1.9-3.2,2.4c-1.3,0.5-2.8,0.7-4.5,0.7c-0.5,0-0.8,0-1,0c-0.2,0-0.5,0-0.9,0v6.4c0,0.1-0.1,0.3-0.2,0.3
					c0,0,0,0-0.1,0h-3.8C12.1,34.6,12,34.5,12,34.4z M16.3,17.6v6.7c0.3,0,0.5,0,0.8,0h1c0.8,0,1.5-0.1,2.3-0.4
					c0.6-0.2,1.2-0.6,1.6-1c0.4-0.5,0.6-1.2,0.6-2c0-0.6-0.1-1.2-0.5-1.8c-0.3-0.5-0.8-0.9-1.4-1.1c-0.7-0.3-1.5-0.4-2.3-0.4
					c-0.5,0-1,0-1.3,0C16.8,17.6,16.5,17.6,16.3,17.6L16.3,17.6z"/>
				<path class="st7" d="M39.3,23c-0.6-0.3-1.2-0.5-1.9-0.7c-0.7-0.2-1.5-0.3-2.2-0.3c-0.4,0-0.8,0-1.2,0.1
					c-0.3,0.1-0.5,0.2-0.6,0.4c-0.1,0.2-0.2,0.4-0.2,0.5c0,0.2,0.1,0.4,0.2,0.5c0.2,0.2,0.4,0.4,0.7,0.5c0.5,0.2,0.9,0.5,1.4,0.7
					c1.1,0.4,2.1,0.9,3,1.4c0.7,0.4,1.2,1,1.6,1.6c0.3,0.6,0.5,1.3,0.5,2c0,0.9-0.3,1.9-0.8,2.6c-0.6,0.8-1.3,1.4-2.2,1.8
					c-1,0.4-2.2,0.6-3.6,0.6c-0.9,0-1.8-0.1-2.7-0.3c-0.7-0.1-1.4-0.3-2-0.6c-0.1-0.1-0.2-0.2-0.2-0.4v-3.4c0-0.1,0-0.1,0.1-0.2
					c0.1,0,0.1,0,0.2,0c0.8,0.5,1.6,0.8,2.5,1c0.8,0.2,1.5,0.3,2.3,0.3c0.8,0,1.3-0.1,1.6-0.3c0.3-0.1,0.5-0.5,0.5-0.8
					c0-0.3-0.2-0.5-0.5-0.8c-0.3-0.3-1-0.6-1.9-0.9c-1-0.4-1.9-0.8-2.8-1.4c-0.6-0.4-1.1-1-1.5-1.7c-0.3-0.6-0.5-1.3-0.5-2
					c0-0.9,0.2-1.7,0.7-2.4c0.5-0.8,1.2-1.4,2.1-1.8c0.9-0.5,2.1-0.7,3.5-0.7c0.8,0,1.6,0.1,2.5,0.2c0.6,0.1,1.2,0.2,1.7,0.5
					c0.1,0,0.2,0.1,0.2,0.2c0,0.1,0,0.2,0,0.2v3.2c0,0.1,0,0.2-0.1,0.2C39.5,23.1,39.4,23.1,39.3,23z"/>
			</g>
		</g>
	</g>
</g>
<g id="Illustrator" class="st0">
	<g id="Layer_2_00000075881828410226625100000014477594238670429328_" class="st1">
		<g id="Surfaces_00000007389253931125521930000015209867965846481810_">
			<g id="Drawing_Surface_00000147191295480781507970000005870807699304382385_">
				<g id="Outline_no_shadow_00000093164149170989813920000008056326022088609943_">
					<path class="st8" d="M9.9,1.8h30.7c4.7,0,8.4,3.8,8.4,8.4v29.5c0,4.7-3.8,8.4-8.4,8.4H9.9c-4.7,0-8.4-3.8-8.4-8.4V10.2
						C1.5,5.5,5.2,1.8,9.9,1.8z"/>
				</g>
			</g>
		</g>
		<g id="Outlined_Mnemonics_Logos_00000089559471409246322730000000221409907074205093_">
			<g id="Ai_00000155143177417249742880000001956798781590149048_">
				<path class="st9" d="M24.5,29.6h-7.4l-1.5,4.7c0,0.2-0.2,0.3-0.4,0.3h-3.7c-0.2,0-0.3-0.1-0.2-0.4l6.4-18.3
					c0.1-0.2,0.1-0.4,0.2-0.7c0.1-0.4,0.1-0.9,0.1-1.3c0-0.1,0.1-0.2,0.2-0.2c0,0,0,0,0.1,0h5.1c0.2,0,0.2,0.1,0.3,0.2l7.2,20.4
					c0.1,0.2,0,0.3-0.2,0.3h-4.1c-0.1,0-0.3-0.1-0.3-0.2L24.5,29.6z M18.3,25.6h5c-0.1-0.4-0.3-0.9-0.5-1.4
					c-0.2-0.5-0.4-1.1-0.5-1.7c-0.2-0.6-0.4-1.2-0.6-1.8s-0.4-1.2-0.5-1.8c-0.2-0.6-0.3-1.1-0.4-1.5h0c-0.2,0.9-0.4,1.7-0.7,2.6
					c-0.3,1-0.6,1.9-0.9,2.9C18.9,23.8,18.6,24.7,18.3,25.6L18.3,25.6z"/>
				<path class="st9" d="M35.1,17c-0.7,0-1.3-0.2-1.8-0.7c-0.5-0.5-0.7-1.1-0.7-1.8c0-0.7,0.2-1.3,0.7-1.8c0.5-0.5,1.1-0.7,1.8-0.7
					c0.8,0,1.4,0.2,1.8,0.7c0.4,0.5,0.7,1.1,0.7,1.8c0,0.7-0.2,1.3-0.7,1.8C36.4,16.8,35.7,17.1,35.1,17z M32.9,34.2V19
					c0-0.2,0.1-0.3,0.3-0.3H37c0.2,0,0.3,0.1,0.3,0.3v15.2c0,0.2-0.1,0.3-0.3,0.3h-3.9C33,34.5,32.9,34.4,32.9,34.2z"/>
			</g>
		</g>
	</g>
</g>
<g id="AE" class="st0">
	<g class="st1">
		<defs>
			<rect id="SVGID_1_" x="-37.5" y="-468.2" width="834" height="834"/>
		</defs>
		<clipPath id="SVGID_00000027606239308843708220000009399192317638835628_">
			<use xlink:href="#SVGID_1_"  style="overflow:visible;"/>
		</clipPath>
		<g style="clip-path:url(#SVGID_00000027606239308843708220000009399192317638835628_);">
			<defs>
				<path id="SVGID_00000163767844317861653570000003436048673625420963_" d="M117.7-313C47.7-243.1,9.2-150.1,9.2-51.2
					s38.5,191.9,108.4,261.8S280.5,319,379.4,319s191.9-38.5,261.8-108.4S749.6,47.7,749.6-51.2S711.1-243.1,641.2-313
					S478.3-421.4,379.4-421.4S187.6-382.9,117.7-313"/>
			</defs>
			<clipPath id="SVGID_00000103976394389184929540000015987805545924286115_">
				<use xlink:href="#SVGID_00000163767844317861653570000003436048673625420963_"  style="overflow:visible;"/>
			</clipPath>
			
				<radialGradient id="SVGID_00000038391948322635897860000012983272742608839833_" cx="-612.2448" cy="818.4407" r="1.4711" gradientTransform="matrix(381.449 0 0 381.449 233793.2188 -312448.4375)" gradientUnits="userSpaceOnUse">
				<stop  offset="0" style="stop-color:#442F55"/>
				<stop  offset="1" style="stop-color:#12002C"/>
			</radialGradient>
			
				<rect x="9.2" y="-421.4" style="clip-path:url(#SVGID_00000103976394389184929540000015987805545924286115_);fill:url(#SVGID_00000038391948322635897860000012983272742608839833_);" width="740.4" height="740.4"/>
		</g>
	</g>
	<g class="st1">
		<defs>
			<rect id="SVGID_00000084499220016727658100000000275143879596441225_" x="-37.5" y="-468.2" width="834" height="834"/>
		</defs>
		<clipPath id="SVGID_00000114037075005491300240000013657097946569293500_">
			<use xlink:href="#SVGID_00000084499220016727658100000000275143879596441225_"  style="overflow:visible;"/>
		</clipPath>
		<g style="clip-path:url(#SVGID_00000114037075005491300240000013657097946569293500_);">
			<defs>
				<rect id="SVGID_00000088828616116973346800000017806130817284790164_" x="-37.5" y="-468.2" width="834" height="834"/>
			</defs>
			<clipPath id="SVGID_00000096045638062796148800000016200819519836801178_">
				<use xlink:href="#SVGID_00000088828616116973346800000017806130817284790164_"  style="overflow:visible;"/>
			</clipPath>
			
				<path style="clip-path:url(#SVGID_00000096045638062796148800000016200819519836801178_);fill:none;stroke:#D8A1FF;stroke-width:36.777;stroke-miterlimit:10;" d="
				M379.4,319c-98.9,0-191.9-38.5-261.8-108.4S9.2,47.7,9.2-51.2S47.7-243.1,117.6-313s162.9-108.4,261.8-108.4
				S571.3-382.9,641.2-313S749.6-150.1,749.6-51.2s-38.5,191.9-108.4,261.8S478.3,319,379.4,319z"/>
		</g>
		<g style="clip-path:url(#SVGID_00000114037075005491300240000013657097946569293500_);">
			<defs>
				<rect id="SVGID_00000159463672701158405230000004987741571920248710_" x="-37.5" y="-468.2" width="834" height="834"/>
			</defs>
			<clipPath id="SVGID_00000088103918646558110280000004603329091511102124_">
				<use xlink:href="#SVGID_00000159463672701158405230000004987741571920248710_"  style="overflow:visible;"/>
			</clipPath>
			<path style="clip-path:url(#SVGID_00000088103918646558110280000004603329091511102124_);fill:#D8A1FF;" d="M474.2-9.6L474.2-9.6
				c0-0.2,0-0.4,0-0.6V-9.6z"/>
		</g>
		<g style="clip-path:url(#SVGID_00000114037075005491300240000013657097946569293500_);">
			<defs>
				<rect id="SVGID_00000091724535383679073870000003195792228522712720_" x="-37.5" y="-468.2" width="834" height="834"/>
			</defs>
			<clipPath id="SVGID_00000176759204493700650080000002232400981417360823_">
				<use xlink:href="#SVGID_00000091724535383679073870000003195792228522712720_"  style="overflow:visible;"/>
			</clipPath>
			<path style="clip-path:url(#SVGID_00000176759204493700650080000002232400981417360823_);fill:#D8A1FF;" d="M521.9-149.7
				c-65.8,0-103.2,59.1-103.2,131.3c0,66.4,30.3,126.1,111.1,126.1c25.1,0,45.3-3.7,61.5-11.6c2.1-1.5,3.1-3.1,3.1-6.1V51.7
				c0-2.8-1.5-3.1-3.7-2.1c-16.2,7-31.8,9.5-49.9,9.5c-46.3,0-65.9-27.6-66.7-68.6l0,0v-0.7c0,0.2,0,0.4,0,0.6h80.2
				c26.9,0,45-1.2,51.1-2.1c2.4-0.6,3.4-1.5,4-4c1.5-5.8,2.4-17.8,2.4-32.4C611.9-93.7,588.7-149.7,521.9-149.7 M559-52.7
				c-1.5,0.6-7,0.6-22.7,0.6h-61.5c3.1-27.2,15.6-53,45-53c31.8,0,39.8,30.6,39.8,47.1C559.6-56.4,559-54.9,559-52.7"/>
		</g>
		<g style="clip-path:url(#SVGID_00000114037075005491300240000013657097946569293500_);">
			<defs>
				<rect id="SVGID_00000049917461807928962710000008690518026372983998_" x="-37.5" y="-468.2" width="834" height="834"/>
			</defs>
			<clipPath id="SVGID_00000011747286935565068020000004965093435112712850_">
				<use xlink:href="#SVGID_00000049917461807928962710000008690518026372983998_"  style="overflow:visible;"/>
			</clipPath>
			<path style="clip-path:url(#SVGID_00000011747286935565068020000004965093435112712850_);fill:#D8A1FF;" d="M307.7-230.5
				c-0.6-2.4-1.5-3.1-3.7-3.1h-64.3c-1.5,0-2.4,0.9-2.4,3.1c-0.6,15.3-1.5,19.6-3.1,25.1L147.3,98.5c-0.6,3.7,0,4.6,3.1,4.6h45
				c3.1,0,4-0.9,4.6-3.4l24.2-91.5l0,0h98.3l25.1,91.8c0.6,2.1,2.1,3.1,4.6,3.1h50.5c2.4,0,3.1-1.5,2.4-4L307.7-230.5z M236.7-41.4
				c12.5-47.4,29.4-108,35.8-143.9h0.6c7.7,35.8,28.5,109.9,37,143.9L236.7-41.4L236.7-41.4z"/>
		</g>
	</g>
</g>
<g id="AE_Final" class="st0">
	<g class="st1">
		<g>
			<defs>
				<rect id="SVGID_00000168110342539755642270000017020314405189152702_" x="0.7" y="0.2" width="49.4" height="49.4"/>
			</defs>
			<clipPath id="SVGID_00000160184605392578262390000016964347433400827785_">
				<use xlink:href="#SVGID_00000168110342539755642270000017020314405189152702_"  style="overflow:visible;"/>
			</clipPath>
			<g style="clip-path:url(#SVGID_00000160184605392578262390000016964347433400827785_);">
				<defs>
					<path id="SVGID_00000080908497567389020790000005185702105000297132_" d="M9.9,9.4C5.7,13.5,3.5,19,3.5,24.9s2.3,11.4,6.4,15.5
						s9.7,6.4,15.5,6.4s11.4-2.3,15.5-6.4s6.4-9.7,6.4-15.5S45,13.5,40.9,9.4S31.3,3,25.4,3S14,5.2,9.9,9.4"/>
				</defs>
				<clipPath id="SVGID_00000035508250160332823440000009712513380397750963_">
					<use xlink:href="#SVGID_00000080908497567389020790000005185702105000297132_"  style="overflow:visible;"/>
				</clipPath>
				
					<radialGradient id="SVGID_00000049205522751440694700000004508569664061836955_" cx="-612.8613" cy="819.1429" r="8.715528e-02" gradientTransform="matrix(381.449 0 0 381.449 233793.2188 -312448.4375)" gradientUnits="userSpaceOnUse">
					<stop  offset="0" style="stop-color:#442F55"/>
					<stop  offset="1" style="stop-color:#12002C"/>
				</radialGradient>
				
					<rect x="3.5" y="3" style="clip-path:url(#SVGID_00000035508250160332823440000009712513380397750963_);fill:url(#SVGID_00000049205522751440694700000004508569664061836955_);" width="43.9" height="43.9"/>
			</g>
		</g>
		<g>
			<defs>
				<rect id="SVGID_00000011725000865560603650000017880206518088864170_" x="0.7" y="0.2" width="49.4" height="49.4"/>
			</defs>
			<clipPath id="SVGID_00000036240965690372881180000014147772841575594153_">
				<use xlink:href="#SVGID_00000011725000865560603650000017880206518088864170_"  style="overflow:visible;"/>
			</clipPath>
			<g style="clip-path:url(#SVGID_00000036240965690372881180000014147772841575594153_);">
				<defs>
					<rect id="SVGID_00000116928930912088002500000013941942475226806197_" x="0.7" y="0.2" width="49.4" height="49.4"/>
				</defs>
				<clipPath id="SVGID_00000126300853818355223050000006393359698152388232_">
					<use xlink:href="#SVGID_00000116928930912088002500000013941942475226806197_"  style="overflow:visible;"/>
				</clipPath>
				<path style="clip-path:url(#SVGID_00000126300853818355223050000006393359698152388232_);fill:#D8A1FF;" d="M31,27.4L31,27.4
					C31,27.3,31,27.3,31,27.4L31,27.4z"/>
			</g>
			<g style="clip-path:url(#SVGID_00000036240965690372881180000014147772841575594153_);">
				<defs>
					<rect id="SVGID_00000137818133268643668540000015599163984834003380_" x="0.7" y="0.2" width="49.4" height="49.4"/>
				</defs>
				<clipPath id="SVGID_00000145745372902006916020000007156736460492565154_">
					<use xlink:href="#SVGID_00000137818133268643668540000015599163984834003380_"  style="overflow:visible;"/>
				</clipPath>
				<path style="clip-path:url(#SVGID_00000145745372902006916020000007156736460492565154_);fill:#D8A1FF;" d="M33.8,19.1
					c-3.9,0-6.1,3.5-6.1,7.8c0,3.9,1.8,7.5,6.6,7.5c1.5,0,2.7-0.2,3.6-0.7c0.1-0.1,0.2-0.2,0.2-0.4V31c0-0.2-0.1-0.2-0.2-0.1
					c-1,0.4-1.9,0.6-3,0.6c-2.7,0-3.9-1.6-4-4.1l0,0v0c0,0,0,0,0,0h4.8c1.6,0,2.7-0.1,3-0.1c0.1,0,0.2-0.1,0.2-0.2
					c0.1-0.3,0.1-1.1,0.1-1.9C39.2,22.4,37.8,19.1,33.8,19.1 M36,24.8c-0.1,0-0.4,0-1.3,0H31c0.2-1.6,0.9-3.1,2.7-3.1
					c1.9,0,2.4,1.8,2.4,2.8C36.1,24.6,36,24.7,36,24.8"/>
			</g>
			<g style="clip-path:url(#SVGID_00000036240965690372881180000014147772841575594153_);">
				<defs>
					<rect id="SVGID_00000108277947211363605020000001453244124216557223_" x="0.7" y="0.2" width="49.4" height="49.4"/>
				</defs>
				<clipPath id="SVGID_00000103236090811448150300000007425728934597567632_">
					<use xlink:href="#SVGID_00000108277947211363605020000001453244124216557223_"  style="overflow:visible;"/>
				</clipPath>
				<path style="clip-path:url(#SVGID_00000103236090811448150300000007425728934597567632_);fill:#D8A1FF;" d="M21.1,14.3
					c0-0.1-0.1-0.2-0.2-0.2h-3.8c-0.1,0-0.1,0.1-0.1,0.2c0,0.9-0.1,1.2-0.2,1.5l-5.1,18c0,0.2,0,0.3,0.2,0.3h2.7
					c0.2,0,0.2-0.1,0.3-0.2l1.4-5.4l0,0H22l1.5,5.4c0,0.1,0.1,0.2,0.3,0.2h3c0.1,0,0.2-0.1,0.1-0.2L21.1,14.3z M16.9,25.5
					c0.7-2.8,1.7-6.4,2.1-8.5h0c0.5,2.1,1.7,6.5,2.2,8.5L16.9,25.5L16.9,25.5z"/>
			</g>
		</g>
		<path class="st23" d="M25.3,1.9C12.6,1.9,2.2,12.2,2.2,25s10.3,23.1,23.1,23.1S48.4,37.8,48.4,25S38.1,1.9,25.3,1.9z M25.5,45.7
			C14,45.7,4.6,36.4,4.6,24.9S14,4,25.5,4s20.9,9.3,20.9,20.9S37,45.7,25.5,45.7z"/>
	</g>
</g>
<g id="Premiere">
	<g transform="matrix(1.000000125 0 0 1.000000125 159.9999625 83)">
		<path class="st24" d="M-150.2-81.1h30.7c4.7,0,8.4,3.8,8.4,8.4v29.5c0,4.7-3.8,8.4-8.4,8.4h-30.7c-4.7,0-8.4-3.8-8.4-8.4v-29.5
			C-158.6-77.4-154.9-81.1-150.2-81.1z"/>
		<g>
			<path class="st25" d="M-147.3-48.6V-69c0-0.1,0.1-0.2,0.2-0.2c0.3,0,0.7,0,1.1,0c0.5,0,1,0,1.5,0c0.5,0,1.1,0,1.7,0
				c0.6,0,1.2,0,1.8,0c1.6,0,3,0.2,4.1,0.6c1,0.3,1.9,0.9,2.7,1.6c0.6,0.6,1.1,1.4,1.4,2.3c0.3,0.8,0.5,1.7,0.5,2.6
				c0,1.7-0.4,3.1-1.2,4.2c-0.8,1.1-1.9,1.9-3.2,2.4c-1.3,0.5-2.8,0.7-4.5,0.7c-0.5,0-0.8,0-1,0s-0.5,0-0.9,0v6.4
				c0,0.1-0.1,0.3-0.2,0.3h-3.8C-147.3-48.4-147.3-48.5-147.3-48.6L-147.3-48.6z M-143-65.4v6.7c0.3,0,0.5,0,0.8,0h1
				c0.8,0,1.5-0.1,2.3-0.4c0.6-0.2,1.2-0.6,1.6-1c0.4-0.5,0.6-1.2,0.6-2c0-0.6-0.1-1.2-0.5-1.8c-0.3-0.5-0.8-0.9-1.4-1.1
				c-0.7-0.3-1.5-0.4-2.3-0.4c-0.5,0-1,0-1.3,0C-142.6-65.4-142.9-65.4-143-65.4L-143-65.4z"/>
			<path class="st25" d="M-129.6-64.3h3.5c0.2,0,0.4,0.1,0.4,0.3c0.1,0.2,0.1,0.3,0.1,0.5c0,0.2,0.1,0.4,0.1,0.6c0,0.2,0,0.5,0,0.7
				c0.6-0.7,1.3-1.3,2.1-1.7c0.9-0.5,2-0.8,3-0.8c0.1,0,0.3,0.1,0.3,0.2v3.9c0,0.2-0.1,0.2-0.3,0.2c-0.7,0-1.4,0-2.1,0.2
				c-0.6,0.1-1.1,0.3-1.7,0.5c-0.4,0.2-0.7,0.4-1,0.7v10.1c0,0.2-0.1,0.3-0.3,0.3h-3.9c-0.2,0-0.3-0.1-0.3-0.2v-11c0-0.5,0-1,0-1.5
				c0-0.5,0-1,0-1.5c0-0.5,0-0.9-0.1-1.3C-129.8-64.1-129.8-64.2-129.6-64.3C-129.7-64.3-129.6-64.3-129.6-64.3L-129.6-64.3z"/>
		</g>
	</g>
</g>
<g id="Maya" class="st0">
	<g class="st1">
		<polygon class="st26" points="17.1,27.2 17.1,27.3 11.1,27.3 11.1,27.2 11,27.2 25.2,5.3 17.1,27.2 		"/>
		<polygon class="st26" points="33.4,27.2 33.4,27.2 25.2,5.3 39.4,27.2 39.4,27.2 39.4,27.3 33.4,27.3 		"/>
		<polygon class="st27" points="1.6,17.1 25.2,5.3 11,27.2 11,27.2 11,27.2 1.7,17.2 		"/>
		<polygon class="st27" points="25.2,5.3 48.8,17.1 48.8,17.2 39.5,27.2 39.4,27.2 39.4,27.2 		"/>
		<polygon class="st28" points="11,27.2 11,27.2 11.1,27.2 11.1,27.3 11.1,43.3 11,43.4 1.7,39.4 1.7,39.4 1.7,17.2 11,27.2 		"/>
		<polygon class="st28" points="11.1,27.2 11.1,27.3 11.1,27.3 		"/>
		<polygon class="st28" points="39.4,27.2 39.4,27.2 39.4,27.2 39.5,27.2 48.8,17.2 48.8,39.4 48.8,39.4 39.4,43.4 39.4,43.3 
			39.4,27.4 39.5,27.3 39.4,27.3 		"/>
		<polygon class="st27" points="17.1,27.2 25.2,5.3 25.2,5.3 33.4,27.2 33.4,27.2 33.4,27.3 33.4,27.3 25.2,27.3 25.2,27.3 
			17.1,27.3 17.1,27.3 17.1,27.2 		"/>
		<polygon class="st28" points="39.4,27.3 39.5,27.3 39.4,27.4 		"/>
		<polygon class="st29" points="33.4,27.3 39.4,27.3 39.4,27.4 35.1,31.9 		"/>
		<polygon class="st28" points="33.4,27.3 33.4,27.3 35.1,31.9 25.2,42.5 25.2,42.5 15.3,31.9 17.1,27.3 17.1,27.3 25.2,27.3 
			25.2,27.3 		"/>
		<polygon class="st29" points="11.1,27.3 17.1,27.3 15.3,31.9 		"/>
		<polygon class="st30" points="11.1,27.3 11.1,27.3 15.3,31.9 11.1,43.3 		"/>
		<polygon class="st30" points="39.4,27.4 39.4,43.3 35.1,31.9 		"/>
	</g>
</g>
<g id="Unity" class="st0">
	<g class="st1">
		<path id="path6" class="st31" d="M46.7,34.8V12.3L27.2,1v8.7l7.6,4.4c0.3,0.2,0.3,0.6,0,0.7L25.8,20c-0.3,0.2-0.6,0.1-0.8,0
			l-9.1-5.2c-0.3-0.1-0.3-0.6,0-0.7l7.6-4.4V1L3.9,12.3v22.5v-0.1v0.1l7.4-4.3v-8.9c0-0.3,0.4-0.5,0.6-0.4l9.1,5.2
			c0.3,0.2,0.4,0.4,0.4,0.7v10.5c0,0.3-0.4,0.5-0.6,0.4l-7.6-4.4l-7.4,4.3l19.5,11.4L44.8,38l-7.4-4.3l-7.6,4.4
			c-0.3,0.2-0.6,0-0.6-0.4V27.3c0-0.3,0.2-0.6,0.4-0.7l9.1-5.2c0.3-0.2,0.6,0,0.6,0.4v8.9L46.7,34.8z"/>
		<path id="path8" d="M25.3,49.3L44.8,38l-7.4-4.3l-7.6,4.4c-0.3,0.2-0.6,0-0.6-0.4V27.3c0-0.3,0.2-0.6,0.4-0.7l9.1-5.2
			c0.3-0.2,0.6,0,0.6,0.4v8.9l7.4,4.3V12.3L25.3,24.6V49.3L25.3,49.3z"/>
		<path id="path10" class="st32" d="M27.2,1v8.7l7.6,4.4c0.3,0.2,0.3,0.6,0,0.7L25.8,20c-0.3,0.2-0.6,0.1-0.8,0l-9.1-5.2
			c-0.3-0.1-0.3-0.6,0-0.7l7.6-4.4V1L3.9,12.3l21.4,12.4l21.4-12.4L27.2,1z"/>
		<path id="path12" class="st31" d="M20.9,38.1l-7.6-4.4L5.8,38l19.5,11.3V24.6L3.9,12.3v22.5v-0.1v0.1l7.4-4.3v-8.9
			c0-0.3,0.4-0.5,0.6-0.4l9.1,5.2c0.3,0.2,0.4,0.4,0.4,0.7v10.5C21.5,38,21.2,38.3,20.9,38.1z"/>
	</g>
</g>
</svg>
