<?xml version="1.0" encoding="utf-8"?>
<!-- Generator: Adobe Illustrator 26.3.1, SVG Export Plug-In . SVG Version: 6.00 Build 0)  -->
<svg version="1.1" xmlns="http://www.w3.org/2000/svg" xmlns:xlink="http://www.w3.org/1999/xlink" x="0px" y="0px"
	 viewBox="0 0 50 50" style="enable-background:new 0 0 50 50;" xml:space="preserve">
<style type="text/css">
	.st0{display:none;}
	.st1{display:inline;}
	.st2{fill:#E34E26;}
	.st3{fill:#EF662A;}
	.st4{fill:#FFFFFF;}
	.st5{fill:#EBEBEB;}
	.st6{fill:#1B73BA;}
	.st7{fill:#1C88C7;}
</style>
<g id="Capa_1" class="st0">
	<g id="XMLID_3090_" class="st1">
		<path id="XMLID_3149_" class="st2" d="M9.3,42.4L5.8,3.2h38.4l-3.5,39.2L25,46.8L9.3,42.4z"/>
		<path id="XMLID_3148_" class="st3" d="M25,6.4v37.1l12.7-3.6l3-33.5L25,6.4z"/>
		<g id="XMLID_3091_">
			<path id="XMLID_3146_" class="st4" d="M12.9,11.2l1.3,14.6h16.7L30.4,32L25,33.5L19.6,32l-0.3-4h-4.9l0.7,7.7l9.9,2.8l9.9-2.8
				L36.2,21H18.6l-0.4-5h18.4l0.5-4.8H12.9z"/>
			<g id="XMLID_3092_">
				<path id="XMLID_3145_" class="st5" d="M25,11.2H12.9l1.3,14.6H25V21h-6.4l-0.4-5H25V11.2z"/>
				<path id="XMLID_3103_" class="st5" d="M25,33.5L19.6,32l-0.3-4h-4.9l0.7,7.7l9.9,2.8V33.5z"/>
			</g>
		</g>
	</g>
</g>
<g id="Layer_2">
	<g>
		<path class="st6" d="M9.1,42.4L5.9,3.4L44,3.4l-3.4,39l-15.6,4.5L9.1,42.4z"/>
		<path class="st7" d="M25.1,43.2V7.1l15.7,0.1L38,39.4L25.1,43.2z"/>
		<path class="st4" d="M36.9,11.7H12.7l0.7,4.7h11.5l-11.3,4.8l0.7,4.6h16.6l-0.6,6.4l-5.6,1.1L19.5,32l-0.4-3.6h-4.7l0.6,7.5
			l10.1,2.8l9.6-3.1L36,20.9H25.8l11.1-4.6L36.9,11.7z"/>
	</g>
</g>
</svg>
