<svg version="1.1" id="Capa_1" xmlns="http://www.w3.org/2000/svg" x="0" y="0" viewBox="0 0 50 50" xml:space="preserve"><style>.st2{fill:#fff}</style><g id="XMLID_3058_"><g id="XMLID_3086_"><g id="XMLID_3087_"><path id="XMLID_3089_" fill="#e5a229" d="M44.3 3.2H5.7l3.6 39.2L25 46.8l15.7-4.4z"/><path id="XMLID_3088_" fill="#f1be21" d="M25 6.4v37.1l12.7-3.6 3.1-33.5z"/></g></g><g id="XMLID_3072_"><path id="XMLID_3084_" class="st2" d="M32.5 32.3c-1.9 0-3.5-.4-4.7-1.3s-2.2-2-2.7-3.4l3.2-1.9c.7 1.9 2.2 2.9 4.4 2.9 1 0 1.8-.2 2.3-.6.5-.4.7-.9.7-1.4 0-.7-.3-1.2-.9-1.6-.6-.4-1.7-.8-3.2-1.2-.8-.3-1.6-.5-2.2-.8-.6-.3-1.2-.6-1.8-1-.6-.4-1-1-1.3-1.6-.3-.6-.5-1.4-.5-2.3 0-1.7.6-3.1 1.8-4.1s2.7-1.5 4.4-1.5c1.5 0 2.9.4 4 1.1 1.2.7 2.1 1.8 2.7 3.1l-3.1 1.8c-.8-1.6-2-2.4-3.6-2.4-.8 0-1.4.2-1.8.5-.4.3-.7.8-.7 1.4 0 .6.2 1.1.7 1.4.5.4 1.4.8 2.9 1.2.6.2 1 .3 1.3.4.3.1.7.3 1.2.5s.9.4 1.2.6c.3.2.6.4 1 .7.4.3.6.6.8.9.2.3.4.7.5 1.2.1.5.2 1 .2 1.5 0 1.7-.6 3.1-1.9 4.2s-2.8 1.7-4.9 1.7z"/></g><g id="XMLID_3059_"><path id="XMLID_3060_" class="st2" d="M16.2 31.8c-2.8 0-4.8-1.1-6-3.4l3.1-1.8c.6 1.1 1.5 1.7 2.9 1.7.9 0 1.7-.2 2.1-.7.5-.4.7-1.1.7-1.8V13.3h3.5v12.5c0 1.9-.6 3.4-1.8 4.4-1.1 1.1-2.6 1.6-4.5 1.6z"/></g></g></svg>