<svg xmlns="http://www.w3.org/2000/svg" xmlns:xlink="http://www.w3.org/1999/xlink" viewBox="0 0 3942.52 3569.47"><defs><style>.cls-1,.cls-2,.cls-3,.cls-4,.cls-5,.cls-6,.cls-7,.cls-8,.cls-9{stroke:#000;stroke-miterlimit:10;}.cls-1{fill:url(#linear-gradient);}.cls-2{fill:url(#linear-gradient-2);}.cls-3{fill:url(#linear-gradient-3);}.cls-4{fill:url(#linear-gradient-4);}.cls-5{fill:#000017;}.cls-6{fill:#fafaff;}.cls-7{fill:url(#linear-gradient-5);}.cls-8{fill:url(#linear-gradient-6);}.cls-9{fill:url(#linear-gradient-7);}.cls-10{font-size:30px;font-family:MyriadPro-Regular, Myriad Pro;}.cls-10,.cls-28{fill:#fff;}.cls-11{letter-spacing:0.03em;}.cls-12{letter-spacing:-0.01em;}.cls-13{letter-spacing:0em;}.cls-14{letter-spacing:-0.01em;}.cls-15{letter-spacing:-0.01em;}.cls-16{letter-spacing:0.02em;}.cls-17{letter-spacing:0.02em;}.cls-18{letter-spacing:-0.01em;}.cls-19{letter-spacing:-0.01em;}.cls-20{letter-spacing:0em;}.cls-21{letter-spacing:-0.01em;}.cls-22{letter-spacing:0.01em;}.cls-23{letter-spacing:-0.01em;}.cls-24{letter-spacing:0em;}.cls-25{letter-spacing:0em;}.cls-26{letter-spacing:0.01em;}.cls-27{letter-spacing:-0.01em;}.cls-28{opacity:0.25;}.cls-29{fill:url(#linear-gradient-8);}</style><linearGradient id="linear-gradient" x1="1096.6" y1="2380.32" x2="1452.77" y2="2024.15" gradientUnits="userSpaceOnUse"><stop offset="0" stop-color="#2c2c2c"/><stop offset="0.65" stop-color="#9c9c9c"/></linearGradient><linearGradient id="linear-gradient-2" x1="609.45" y1="3097.26" x2="1921.54" y2="1785.17" xlink:href="#linear-gradient"/><linearGradient id="linear-gradient-3" x1="255.58" y1="2311.38" x2="2238.64" y2="328.32" xlink:href="#linear-gradient"/><linearGradient id="linear-gradient-4" x1="345.2" y1="2212.57" x2="2158.22" y2="399.55" gradientUnits="userSpaceOnUse"><stop offset="0" stop-color="#00a9e7"/><stop offset="0.07" stop-color="#08abe8"/><stop offset="0.18" stop-color="#1fb2eb"/><stop offset="0.32" stop-color="#45bcf0"/><stop offset="0.48" stop-color="#79caf7"/><stop offset="0.65" stop-color="#b9dcff"/></linearGradient><linearGradient id="linear-gradient-5" x1="309.58" y1="1057.89" x2="1270.09" y2="1057.89" gradientUnits="userSpaceOnUse"><stop offset="0" stop-color="#ff6c17"/><stop offset="0.28" stop-color="#c78766"/><stop offset="0.59" stop-color="#8ea3b8"/><stop offset="0.8" stop-color="#6ab5eb"/><stop offset="0.91" stop-color="#5cbcff"/></linearGradient><linearGradient id="linear-gradient-6" x1="327.96" y1="1673.72" x2="764.56" y2="1673.72" gradientUnits="userSpaceOnUse"><stop offset="0" stop-color="#46d000"/><stop offset="0.32" stop-color="#4fc565"/><stop offset="0.61" stop-color="#56bbb8"/><stop offset="0.81" stop-color="#5ab5eb"/><stop offset="0.91" stop-color="#5cb3ff"/></linearGradient><linearGradient id="linear-gradient-7" x1="792.13" y1="1673.72" x2="1265.5" y2="1673.72" gradientUnits="userSpaceOnUse"><stop offset="0" stop-color="#46d000"/><stop offset="0.37" stop-color="#46d002"/><stop offset="0.51" stop-color="#47cf09"/><stop offset="0.6" stop-color="#48ce14"/><stop offset="0.68" stop-color="#49cc25"/><stop offset="0.75" stop-color="#4bc93b"/><stop offset="0.8" stop-color="#4dc657"/><stop offset="0.86" stop-color="#50c277"/><stop offset="0.91" stop-color="#54be9d"/><stop offset="0.95" stop-color="#57b9c8"/><stop offset="0.99" stop-color="#5bb4f6"/><stop offset="1" stop-color="#5cb3ff"/></linearGradient><linearGradient id="linear-gradient-8" x1="113.97" y1="651.18" x2="2382.55" y2="1960.95" gradientUnits="userSpaceOnUse"><stop offset="0" stop-color="#fff" stop-opacity="0.9"/><stop offset="0.28" stop-color="#fff" stop-opacity="0.59"/><stop offset="0.53" stop-color="#fff" stop-opacity="0.34"/><stop offset="0.74" stop-color="#fff" stop-opacity="0.16"/><stop offset="0.91" stop-color="#fff" stop-opacity="0.04"/><stop offset="1" stop-color="#fff" stop-opacity="0"/></linearGradient></defs><g id="Base_Monitor" data-name="Base Monitor"><rect class="cls-1" x="1021.92" y="2098.83" width="505.53" height="206.81"/><rect class="cls-2" x="121.16" y="2273.47" width="2288.68" height="335.49"/></g><g id="Base_Screen_Computer" data-name="Base Screen Computer"><rect class="cls-3" x="66.01" y="517.89" width="2362.21" height="1603.91"/></g><g id="Blue_Screen" data-name="Blue Screen"><rect class="cls-4" x="144.13" y="600.62" width="2215.15" height="1410.89"/></g><g id="Base_VS_Code" data-name="Base VS Code"><rect class="cls-5" x="226.86" y="664.96" width="2040.51" height="1309.79"/></g><g id="White_Base_WebSite" data-name="White Base WebSite"><rect class="cls-6" x="231.45" y="664.96" width="1038.64" height="1305.19"/></g><g id="Element_Website_1" data-name="Element Website 1"><path class="cls-7" d="M403.79,761.47h866.3a0,0,0,0,1,0,0v592.85a0,0,0,0,1,0,0H403.79a94.21,94.21,0,0,1-94.21-94.21V855.68a94.21,94.21,0,0,1,94.21-94.21Z"/></g><g id="Element_Website_2" data-name="Element Website 2"><path class="cls-8" d="M396.9,1409.47H764.56a0,0,0,0,1,0,0V1938a0,0,0,0,1,0,0H364.73A36.77,36.77,0,0,1,328,1901.21V1478.4A68.94,68.94,0,0,1,396.9,1409.47Z"/><rect class="cls-9" x="792.13" y="1409.47" width="473.36" height="528.51"/></g><g id="Text_Code" data-name="Text Code"><text class="cls-10" transform="translate(1299.96 837.92)">&lt;!DO<tspan class="cls-11" x="65.43" y="0">CT</tspan><tspan class="cls-12" x="99.42" y="0">Y</tspan><tspan x="115.44" y="0">PE </tspan><tspan class="cls-13" x="152.52" y="0">h</tspan><tspan x="169.05" y="0">tml&gt;</tspan><tspan x="0" y="36">&lt;</tspan><tspan class="cls-13" x="17.88" y="36">h</tspan><tspan x="34.41" y="36">tml lang=</tspan><tspan class="cls-14" x="155.64" y="36">&quot;</tspan><tspan x="165.51" y="36">e</tspan><tspan class="cls-15" x="180.54" y="36">n</tspan><tspan x="196.98" y="36">&quot;&gt;</tspan><tspan x="0" y="72">&lt;head&gt;</tspan><tspan x="0" y="108" xml:space="preserve">    &lt;meta charset=&quot;UTF-8&quot;&gt;</tspan><tspan x="0" y="144" xml:space="preserve">    &lt;meta name=</tspan><tspan class="cls-16" x="203.15" y="144">&quot;</tspan><tspan x="213.89" y="144">viewpo</tspan><tspan class="cls-17" x="305.99" y="144">r</tspan><tspan x="316.52" y="144">t&quot; </tspan><tspan class="cls-18" x="342.92" y="144">c</tspan><tspan x="356.18" y="144">o</tspan><tspan class="cls-13" x="372.65" y="144">n</tspan><tspan class="cls-18" x="389.18" y="144">t</tspan><tspan x="398.93" y="144">e</tspan><tspan class="cls-13" x="413.96" y="144">n</tspan><tspan x="430.49" y="144">t=</tspan><tspan class="cls-16" x="458.29" y="144">&quot;</tspan><tspan x="469.03" y="144">width=devi</tspan><tspan class="cls-18" x="612.91" y="144">c</tspan><tspan class="cls-11" x="626.17" y="144">e</tspan><tspan class="cls-19" x="642.04" y="144">-</tspan><tspan x="651.1" y="144">width, initial-scale=1.0&quot;&gt;</tspan><tspan x="0" y="180" xml:space="preserve">    &lt;title&gt;</tspan><tspan class="cls-20" x="110.19" y="180">D</tspan><tspan x="130.29" y="180">ocume</tspan><tspan class="cls-13" x="216.77" y="180">n</tspan><tspan x="233.3" y="180">t&lt;/title&gt;</tspan><tspan x="0" y="216" xml:space="preserve">    &lt;link </tspan><tspan class="cls-21" x="94.5" y="216">r</tspan><tspan x="104.01" y="216">el=&quot;s</tspan><tspan class="cls-22" x="165.98" y="216">t</tspan><tspan x="176.18" y="216">ylesheet&quot; h</tspan><tspan class="cls-21" x="314.06" y="216">r</tspan><tspan x="323.57" y="216">ef=</tspan><tspan class="cls-23" x="365.24" y="216">&quot;</tspan><tspan x="375.11" y="216">css/s</tspan><tspan class="cls-22" x="434.48" y="216">t</tspan><tspan class="cls-24" x="444.68" y="216">yles-2.css&quot;&gt;</tspan><tspan x="0" y="252">&lt;/head&gt;</tspan><tspan x="0" y="288">&lt;body&gt;</tspan><tspan x="0" y="360" xml:space="preserve">    &lt;div id=&quot;bg&quot;&gt;&lt;/div&gt;</tspan><tspan x="0" y="432" xml:space="preserve">   &lt;div id=&quot;bg&quot;&gt;&lt;/div&gt;</tspan><tspan x="0" y="504" xml:space="preserve">   &lt;div id=&quot;bg&quot;&gt;&lt;/div&gt;</tspan><tspan x="0" y="612" xml:space="preserve">   &lt;div id=&quot;bg&quot;&gt;&lt;/div&gt;</tspan><tspan x="0" y="648" xml:space="preserve">    &lt;sc</tspan><tspan class="cls-20" x="68.64" y="648">r</tspan><tspan x="78.57" y="648">ipt </tspan><tspan class="cls-22" x="118.94" y="648">t</tspan><tspan x="129.14" y="648">ype=</tspan><tspan class="cls-17" x="193.25" y="648">&quot;</tspan><tspan class="cls-18" x="204.08" y="648">t</tspan><tspan class="cls-25" x="213.83" y="648">e</tspan><tspan class="cls-26" x="228.77" y="648">x</tspan><tspan x="243.05" y="648">t/j</tspan><tspan class="cls-23" x="270.56" y="648">a</tspan><tspan class="cls-13" x="284.78" y="648">v</tspan><tspan x="299.09" y="648">asc</tspan><tspan class="cls-20" x="338.87" y="648">r</tspan><tspan x="348.8" y="648">ipt&quot; s</tspan><tspan class="cls-21" x="411.17" y="648">r</tspan><tspan x="420.68" y="648">c=&quot;js/pa</tspan><tspan class="cls-17" x="523.09" y="648">r</tspan><tspan x="533.62" y="648">ticle</tspan><tspan class="cls-27" x="586.12" y="648">s</tspan><tspan x="597.67" y="648">.min.js&quot;&gt;&lt;/sc</tspan><tspan class="cls-20" x="759.43" y="648">r</tspan><tspan x="769.36" y="648">ipt&gt;</tspan><tspan x="0" y="684" xml:space="preserve">    &lt;sc</tspan><tspan class="cls-20" x="68.64" y="684">r</tspan><tspan x="78.57" y="684">ipt </tspan><tspan class="cls-22" x="118.94" y="684">t</tspan><tspan x="129.14" y="684">ype=</tspan><tspan class="cls-17" x="193.25" y="684">&quot;</tspan><tspan class="cls-18" x="204.08" y="684">t</tspan><tspan class="cls-25" x="213.83" y="684">e</tspan><tspan class="cls-26" x="228.77" y="684">x</tspan><tspan x="243.05" y="684">t/j</tspan><tspan class="cls-23" x="270.56" y="684">a</tspan><tspan class="cls-13" x="284.78" y="684">v</tspan><tspan x="299.09" y="684">asc</tspan><tspan class="cls-20" x="338.87" y="684">r</tspan><tspan x="348.8" y="684">ipt&quot; s</tspan><tspan class="cls-21" x="411.17" y="684">r</tspan><tspan x="420.68" y="684">c=&quot;js/cus</tspan><tspan class="cls-18" x="533.41" y="684">t</tspan><tspan x="543.16" y="684">om.js&quot;&gt;&lt;/sc</tspan><tspan class="cls-20" x="691.51" y="684">r</tspan><tspan x="701.44" y="684">ipt&gt;</tspan><tspan x="0" y="792">&lt;/body&gt;</tspan><tspan x="0" y="828">&lt;/</tspan><tspan class="cls-13" x="28.17" y="828">h</tspan><tspan x="44.7" y="828">tml&gt;</tspan></text></g><g id="VS_Elements_Screen" data-name="VS Elements Screen"><rect class="cls-28" x="1272.39" y="667.26" width="990.38" height="87.32"/><rect class="cls-28" x="1272.39" y="1869.04" width="994.98" height="101.11"/></g><g id="Brillo_Pantalla_Web" data-name="Brillo Pantalla Web"><rect class="cls-29" x="141.84" y="602.91" width="2212.85" height="1406.3"/></g></svg>